# xmcd
#
# Track frame offsets:
#	150
#	14467
#	30235
#	40380
#	50814
#	66215
#	86716
#	106718
#	117824
#	132412
#	146998
#	160892
#	180418
#	197509
#	227825
#	256391
#	266275
#	282784
#	303089
#	317331
#
# Disc length: 4538 seconds
#
# Revision: 0
# Processed by: cddbd v1.5.2PL0 Copyright (c) Steve Scherf et al.
# Submitted via: EasyCDDAExtractor 2010.6.0.0
#
DISCID=0d11b814
DTITLE=Cats, The - The Cats 100 /CD5
DYEAR=1900
DGENRE=Pop
TTITLE0=1976 Blow Wind Blow
TTITLE1=1976 Town's Fair
TTITLE2=1966 Bend It
TTITLE3=1971 It's Over Now (Demo)
TTITLE4=1973 I Still Remember
TTITLE5=1972 I've Been In Love Before
TTITLE6=1970 Crying Like I Never Done Before
TTITLE7=1966 What Have They Done To The Rain
TTITLE8=1973 Jamaica
TTITLE9=1973 I'm Going Home
TTITLE10=1983 If I Could Be With You Now
TTITLE11=1976 Annabell
TTITLE12=1979 One More Time
TTITLE13=1972 Dreams
TTITLE14=1970 Lonely Walk
TTITLE15=1966 With A Girl Like You
TTITLE16=1971 Don't Waste Your Time (Demo)
TTITLE17=1972 Marian (German Fun)
TTITLE18=1974 Sois Ma Femme
TTITLE19=Classical Waves
EXTD=
EXTT0=
EXTT1=
EXTT2=
EXTT3=
EXTT4=
EXTT5=
EXTT6=
EXTT7=
EXTT8=
EXTT9=
EXTT10=
EXTT11=
EXTT12=
EXTT13=
EXTT14=
EXTT15=
EXTT16=
EXTT17=
EXTT18=
EXTT19=
PLAYORDER=
